<svg xmlns="http://www.w3.org/2000/svg" width="220" height="220" viewBox="0 0 220 220">
  <g fill="#8d7b65" fill-opacity=".06">
    <circle cx="18" cy="26" r=".8"/><circle cx="44" cy="12" r=".6"/><circle cx="75" cy="20" r=".9"/><circle cx="112" cy="18" r=".7"/><circle cx="148" cy="34" r=".8"/><circle cx="182" cy="16" r=".7"/><circle cx="202" cy="42" r=".9"/><circle cx="24" cy="72" r=".7"/><circle cx="58" cy="54" r=".6"/><circle cx="92" cy="70" r=".8"/><circle cx="124" cy="60" r=".7"/><circle cx="160" cy="82" r=".9"/><circle cx="196" cy="66" r=".7"/><circle cx="30" cy="116" r=".8"/><circle cx="74" cy="108" r=".7"/><circle cx="110" cy="104" r=".6"/><circle cx="142" cy="126" r=".8"/><circle cx="174" cy="114" r=".7"/><circle cx="204" cy="126" r=".9"/><circle cx="22" cy="156" r=".8"/><circle cx="56" cy="174" r=".7"/><circle cx="88" cy="148" r=".6"/><circle cx="126" cy="162" r=".9"/><circle cx="158" cy="148" r=".7"/><circle cx="196" cy="166" r=".8"/><circle cx="36" cy="202" r=".7"/><circle cx="72" cy="194" r=".8"/><circle cx="114" cy="206" r=".7"/><circle cx="146" cy="190" r=".6"/><circle cx="182" cy="204" r=".8"/>
  </g>
</svg>
